<?xml version="1.0" encoding="UTF-8" standalone="no"?>
<!-- Created with Inkscape (http://www.inkscape.org/) -->

<svg
   width="111"
   height="111"
   viewBox="0 0 111 111"
   version="1.1"
   id="svg1"
   xmlns:xlink="http://www.w3.org/1999/xlink"
   xmlns="http://www.w3.org/2000/svg"
   xmlns:svg="http://www.w3.org/2000/svg">
  <defs
     id="defs1">
    <linearGradient
       id="linearGradient75">
      <stop
         style="stop-color:#e99450;stop-opacity:1;"
         offset="0"
         id="stop73" />
      <stop
         style="stop-color:#3419bf;stop-opacity:1;"
         offset="1"
         id="stop75" />
    </linearGradient>
    <linearGradient
       id="linearGradient69">
      <stop
         style="stop-color:#ec7070;stop-opacity:1;"
         offset="0.15650831"
         id="stop70" />
      <stop
         style="stop-color:#c23b7a;stop-opacity:0.8509804;"
         offset="0.57825416"
         id="stop72" />
      <stop
         style="stop-color:#c6a2f0;stop-opacity:0.70523417;"
         offset="1"
         id="stop71" />
    </linearGradient>
    <linearGradient
       id="linearGradient55">
      <stop
         style="stop-color:#a95151;stop-opacity:1;"
         offset="0"
         id="stop54" />
      <stop
         style="stop-color:#783db7;stop-opacity:1;"
         offset="1"
         id="stop55" />
    </linearGradient>
    <linearGradient
       id="linearGradient39">
      <stop
         style="stop-color:#a95151;stop-opacity:1;"
         offset="0"
         id="stop38" />
      <stop
         style="stop-color:#7a3ebc;stop-opacity:1;"
         offset="1"
         id="stop39" />
    </linearGradient>
    <linearGradient
       id="linearGradient34">
      <stop
         style="stop-color:#a95151;stop-opacity:1;"
         offset="0"
         id="stop35" />
      <stop
         style="stop-color:#783db7;stop-opacity:1;"
         offset="1"
         id="stop36" />
    </linearGradient>
    <linearGradient
       id="linearGradient26">
      <stop
         style="stop-color:#3623cb;stop-opacity:1;"
         offset="0"
         id="stop26" />
      <stop
         style="stop-color:#131331;stop-opacity:1;"
         offset="1"
         id="stop27" />
    </linearGradient>
    <radialGradient
       xlink:href="#linearGradient26"
       id="radialGradient27"
       cx="60"
       cy="60"
       fx="60"
       fy="60"
       r="55.019398"
       gradientUnits="userSpaceOnUse" />
    <linearGradient
       xlink:href="#linearGradient55"
       id="linearGradient36"
       x1="33.61401"
       y1="59.999996"
       x2="86.385994"
       y2="59.999996"
       gradientUnits="userSpaceOnUse" />
    <linearGradient
       xlink:href="#linearGradient34"
       id="linearGradient37"
       gradientUnits="userSpaceOnUse"
       x1="33.61401"
       y1="59.999996"
       x2="86.385994"
       y2="59.999996" />
    <linearGradient
       xlink:href="#linearGradient39"
       id="linearGradient38"
       gradientUnits="userSpaceOnUse"
       x1="33.61401"
       y1="59.999996"
       x2="86.385994"
       y2="59.999996" />
    <filter
       style="color-interpolation-filters:sRGB"
       id="filter53"
       x="-0.051332401"
       y="-0.070689924"
       width="1.1026648"
       height="1.1413798">
      <feGaussianBlur
         stdDeviation="1.1113298"
         id="feGaussianBlur53" />
    </filter>
    <radialGradient
       xlink:href="#linearGradient69"
       id="radialGradient71"
       cx="60"
       cy="60.000011"
       fx="60"
       fy="60.000011"
       r="25.97961"
       gradientTransform="matrix(1,0,0,0.72616291,0,16.430229)"
       gradientUnits="userSpaceOnUse"
       spreadMethod="pad" />
    <radialGradient
       xlink:href="#linearGradient75"
       id="radialGradient72"
       gradientUnits="userSpaceOnUse"
       gradientTransform="matrix(1,0,0,0.72616291,0,16.430229)"
       cx="81.623047"
       cy="60.978634"
       fx="81.623047"
       fy="60.978634"
       r="25.97961"
       spreadMethod="pad" />
    <filter
       style="color-interpolation-filters:sRGB"
       id="filter75"
       x="-0.00076096636"
       y="-0.001502487"
       width="1.0015219"
       height="1.003005">
      <feGaussianBlur
         stdDeviation="0.027424018"
         id="feGaussianBlur75" />
    </filter>
    <radialGradient
       xlink:href="#linearGradient75"
       id="radialGradient123"
       gradientUnits="userSpaceOnUse"
       gradientTransform="matrix(1.9807568,0,-3.5806158e-7,1.6553559,-80.052336,-40.230695)"
       cx="81.623047"
       cy="60.978634"
       fx="81.623047"
       fy="60.978634"
       r="25.97961"
       spreadMethod="pad" />
    <filter
       style="color-interpolation-filters:sRGB"
       id="filter134"
       x="-0.0045454545"
       y="-0.0045454545"
       width="1.0090909"
       height="1.0090909">
      <feColorMatrix
         values="1.5919 0 0 0.165526 -0.29595 0 1.5919 0 0.165526 -0.29595 0 0 1.5919 0.165526 -0.29595 0 0 0 1 0"
         id="feColorMatrix134" />
    </filter>
    <radialGradient
       xlink:href="#linearGradient26"
       id="radialGradient2"
       gradientUnits="userSpaceOnUse"
       cx="60"
       cy="60"
       fx="60"
       fy="60"
       r="55.019398" />
    <linearGradient
       xlink:href="#linearGradient34"
       id="linearGradient2"
       gradientUnits="userSpaceOnUse"
       x1="33.61401"
       y1="59.999996"
       x2="86.385994"
       y2="59.999996" />
    <linearGradient
       xlink:href="#linearGradient39"
       id="linearGradient3"
       gradientUnits="userSpaceOnUse"
       x1="33.61401"
       y1="59.999996"
       x2="86.385994"
       y2="59.999996" />
    <linearGradient
       xlink:href="#linearGradient55"
       id="linearGradient4"
       gradientUnits="userSpaceOnUse"
       x1="33.61401"
       y1="59.999996"
       x2="86.385994"
       y2="59.999996" />
    <radialGradient
       xlink:href="#linearGradient69"
       id="radialGradient4"
       gradientUnits="userSpaceOnUse"
       gradientTransform="matrix(1,0,0,0.72616291,0,16.430229)"
       cx="60"
       cy="60.000011"
       fx="60"
       fy="60.000011"
       r="25.97961"
       spreadMethod="pad" />
    <radialGradient
       xlink:href="#linearGradient69"
       id="radialGradient5"
       gradientUnits="userSpaceOnUse"
       gradientTransform="matrix(1,0,0,0.72616291,0,16.430229)"
       cx="60"
       cy="60.000011"
       fx="60"
       fy="60.000011"
       r="25.97961"
       spreadMethod="pad" />
    <radialGradient
       xlink:href="#linearGradient69"
       id="radialGradient6"
       gradientUnits="userSpaceOnUse"
       gradientTransform="matrix(1,0,0,0.72616291,0,16.430229)"
       cx="60"
       cy="60.000011"
       fx="60"
       fy="60.000011"
       r="25.97961"
       spreadMethod="pad" />
  </defs>
  <g
     id="layer1"
     style="display:none"
     transform="translate(-4.5,-4.5)">
    <circle
       style="opacity:1;fill:url(#radialGradient2);fill-opacity:1;stroke:#007d9f;stroke-width:1;stroke-linecap:round;stroke-linejoin:round;stroke-dasharray:none;stroke-opacity:1;paint-order:stroke markers fill"
       id="path37"
       cx="60"
       cy="60"
       r="54.519398" />
    <path
       id="circle110"
       style="opacity:0.470803;fill:none;fill-opacity:1;stroke:#007d9f;stroke-width:1;stroke-linecap:round;stroke-linejoin:round;stroke-dasharray:none;stroke-dashoffset:0;stroke-opacity:1;paint-order:stroke markers fill"
       d="M 105,60 A 45,45 0 0 0 60,15 45,45 0 0 0 15,60 45,45 0 0 0 60,105 45,45 0 0 0 105,60 Z" />
    <path
       id="path24"
       style="opacity:0.470803;fill:none;fill-opacity:1;stroke:#007d9f;stroke-width:1;stroke-linecap:round;stroke-linejoin:round;stroke-dasharray:none;stroke-dashoffset:0;stroke-opacity:1;paint-order:stroke markers fill"
       d="M 94.593401,60 A 34.593401,34.593401 0 0 0 60,25.406599 34.593401,34.593401 0 0 0 25.406599,60 34.593401,34.593401 0 0 0 60,94.593401 34.593401,34.593401 0 0 0 94.593401,60 Z" />
    <g
       id="g26"
       style="opacity:0.529197;stroke:#007d9f;stroke-opacity:1">
      <path
         style="fill:#135139;fill-opacity:1;stroke:#007d9f;stroke-width:1;stroke-linecap:round;stroke-linejoin:round;stroke-dasharray:none;stroke-dashoffset:0;stroke-opacity:1"
         d="M 5,60 H 115"
         id="path25" />
      <path
         style="fill:#135139;fill-opacity:1;stroke:#007d9f;stroke-width:1;stroke-linecap:round;stroke-linejoin:round;stroke-dasharray:none;stroke-dashoffset:0;stroke-opacity:1"
         d="M 60,5 V 115"
         id="path26" />
    </g>
    <g
       id="g42"
       style="display:inline;opacity:1;mix-blend-mode:multiply;fill:url(#linearGradient4);fill-opacity:1;stroke:none;stroke-width:0.972929;stroke-dasharray:none;stroke-opacity:1;paint-order:stroke markers fill;filter:url(#filter53)"
       transform="matrix(1.4718445,0,0,1.4718445,-28.310669,-28.310675)">
      <path
         style="display:none;fill:url(#linearGradient2);fill-opacity:1;stroke:none;stroke-width:1.04096;stroke-linecap:round;stroke-linejoin:round;stroke-dasharray:none;stroke-opacity:1;paint-order:stroke markers fill"
         d="m 43.601562,76.394935 v 1.835534 c 1.975865,-1.342778 5.050085,-2.047737 8.300782,-1.904297 3.175311,0.143856 6.160458,1.080431 8.097656,2.542969 m 16.398438,-2.474206 v 1.835534 C 74.422573,76.887691 71.348353,76.182732 68.097656,76.326172 64.922345,76.470028 61.937198,77.406603 60,78.869141"
         id="path36"
         transform="matrix(1.0871287,0,0,0.80354459,-5.2277266,15.514267)" />
      <path
         id="rect1"
         style="display:inline;fill:url(#linearGradient3);fill-opacity:1;fill-rule:nonzero;stroke:none;stroke-width:1.35256;stroke-linecap:round;stroke-linejoin:round;stroke-dasharray:none;stroke-opacity:1;paint-order:stroke markers fill"
         d="m 56.667969,38.820594 c -7.256763,0.132426 -13.846114,1.276504 -18.291016,3.175781 v 39.55664 c 5.210931,-2.22648 13.31759,-3.396043 21.890625,-3.158203 8.374222,0.238531 16.246512,1.793693 21.355469,4.21875 V 43.056922 C 76.51409,40.631865 68.6418,39.076703 60.267578,38.838172 c -1.203172,-0.03343 -2.405665,-0.03931 -3.599609,-0.01758 z m 49.910161,0 c 7.25676,0.132426 13.84611,1.276504 18.29101,3.175781 v 39.55664 c -5.21093,-2.22648 -13.31759,-3.396043 -21.89062,-3.158203 -8.374226,0.238531 -16.246516,1.793693 -21.355473,4.21875 v -39.55664 c 5.108957,-2.425057 12.981247,-3.980219 21.355473,-4.21875 1.20317,-0.03343 2.40566,-0.03931 3.59961,-0.01758 z"
         transform="matrix(0.60073887,0,0,0.86132106,10.965863,7.7086406)" />
    </g>
    <g
       id="g48"
       style="display:inline;opacity:1;mix-blend-mode:screen;fill:url(#radialGradient5);fill-rule:nonzero;stroke:none;stroke-width:0.972929;stroke-dasharray:none;stroke-opacity:1;paint-order:stroke markers fill"
       transform="matrix(1.4718445,0,0,1.4718445,-28.310669,-28.310675)">
      <path
         style="display:none;fill:url(#radialGradient4);fill-opacity:1;fill-rule:nonzero;stroke:none;stroke-width:1.04096;stroke-linecap:round;stroke-linejoin:round;stroke-dasharray:none;stroke-opacity:1;paint-order:stroke markers fill"
         d="m 43.601562,76.394935 v 1.835534 c 1.975865,-1.342778 5.050085,-2.047737 8.300782,-1.904297 3.175311,0.143856 6.160458,1.080431 8.097656,2.542969 m 16.398438,-2.474206 v 1.835534 C 74.422573,76.887691 71.348353,76.182732 68.097656,76.326172 64.922345,76.470028 61.937198,77.406603 60,78.869141"
         id="path47"
         transform="matrix(1.0871287,0,0,0.80354459,-5.2277266,15.514267)" />
      <path
         id="path48"
         style="display:inline;opacity:0.841102;mix-blend-mode:screen;fill:url(#radialGradient72);fill-opacity:1;fill-rule:nonzero;stroke:none;stroke-width:1.35256;stroke-linecap:round;stroke-linejoin:round;stroke-dasharray:none;stroke-opacity:1;paint-order:stroke markers fill;filter:url(#filter75)"
         d="m 56.667969,38.820594 c -7.256763,0.132426 -13.846114,1.276504 -18.291016,3.175781 v 39.55664 c 5.210931,-2.22648 13.31759,-3.396043 21.890625,-3.158203 8.374222,0.238531 16.246512,1.793693 21.355469,4.21875 V 43.056922 C 76.51409,40.631865 68.6418,39.076703 60.267578,38.838172 c -1.203172,-0.03343 -2.405665,-0.03931 -3.599609,-0.01758 z m 49.910161,0 c 7.25676,0.132426 13.84611,1.276504 18.29101,3.175781 v 39.55664 c -5.21093,-2.22648 -13.31759,-3.396043 -21.89062,-3.158203 -8.374226,0.238531 -16.246516,1.793693 -21.355473,4.21875 v -39.55664 c 5.108957,-2.425057 12.981247,-3.980219 21.355473,-4.21875 1.20317,-0.03343 2.40566,-0.03931 3.59961,-0.01758 z"
         transform="matrix(0.60073887,0,0,0.86132106,10.965863,7.7086406)" />
    </g>
  </g>
  <g
     id="g83"
     style="filter:url(#filter134)"
     transform="translate(-4.5,-4.5)">
    <circle
       style="opacity:1;fill:url(#radialGradient27);fill-opacity:1;stroke:#007d9f;stroke-width:1;stroke-linecap:round;stroke-linejoin:round;stroke-dasharray:none;stroke-opacity:1;paint-order:stroke markers fill"
       id="circle75"
       cx="60"
       cy="60"
       r="54.519398" />
    <path
       id="path75"
       style="opacity:0.470803;fill:none;fill-opacity:1;stroke:#007d9f;stroke-width:1;stroke-linecap:round;stroke-linejoin:round;stroke-dasharray:none;stroke-dashoffset:0;stroke-opacity:1;paint-order:stroke markers fill"
       d="M 105,60 A 45,45 0 0 0 60,15 45,45 0 0 0 15,60 45,45 0 0 0 60,105 45,45 0 0 0 105,60 Z" />
    <path
       id="path76"
       style="opacity:0.470803;fill:none;fill-opacity:1;stroke:#007d9f;stroke-width:1;stroke-linecap:round;stroke-linejoin:round;stroke-dasharray:none;stroke-dashoffset:0;stroke-opacity:1;paint-order:stroke markers fill"
       d="M 94.593401,60 A 34.593401,34.593401 0 0 0 60,25.406599 34.593401,34.593401 0 0 0 25.406599,60 34.593401,34.593401 0 0 0 60,94.593401 34.593401,34.593401 0 0 0 94.593401,60 Z" />
    <g
       id="g78"
       style="opacity:0.529197;stroke:#007d9f;stroke-opacity:1">
      <path
         style="fill:#135139;fill-opacity:1;stroke:#007d9f;stroke-width:1;stroke-linecap:round;stroke-linejoin:round;stroke-dasharray:none;stroke-dashoffset:0;stroke-opacity:1"
         d="M 5,60 H 115"
         id="path77" />
      <path
         style="fill:#135139;fill-opacity:1;stroke:#007d9f;stroke-width:1;stroke-linecap:round;stroke-linejoin:round;stroke-dasharray:none;stroke-dashoffset:0;stroke-opacity:1"
         d="M 60,5 V 115"
         id="path78" />
    </g>
    <g
       id="g80"
       style="display:inline;opacity:1;mix-blend-mode:multiply;fill:url(#linearGradient36);fill-opacity:1;stroke:none;stroke-width:0.972929;stroke-dasharray:none;stroke-opacity:1;paint-order:stroke markers fill;filter:url(#filter53)"
       transform="matrix(1.4718445,0,0,1.4718445,-28.310669,-28.310675)">
      <path
         style="display:none;fill:url(#linearGradient37);fill-opacity:1;stroke:none;stroke-width:1.04096;stroke-linecap:round;stroke-linejoin:round;stroke-dasharray:none;stroke-opacity:1;paint-order:stroke markers fill"
         d="m 43.601562,76.394935 v 1.835534 c 1.975865,-1.342778 5.050085,-2.047737 8.300782,-1.904297 3.175311,0.143856 6.160458,1.080431 8.097656,2.542969 m 16.398438,-2.474206 v 1.835534 C 74.422573,76.887691 71.348353,76.182732 68.097656,76.326172 64.922345,76.470028 61.937198,77.406603 60,78.869141"
         id="path79"
         transform="matrix(1.0871287,0,0,0.80354459,-5.2277266,15.514267)" />
      <path
         id="path80"
         style="display:inline;fill:url(#linearGradient38);fill-opacity:1;fill-rule:nonzero;stroke:none;stroke-width:1.35256;stroke-linecap:round;stroke-linejoin:round;stroke-dasharray:none;stroke-opacity:1;paint-order:stroke markers fill"
         d="m 56.667969,38.820594 c -7.256763,0.132426 -13.846114,1.276504 -18.291016,3.175781 v 39.55664 c 5.210931,-2.22648 13.31759,-3.396043 21.890625,-3.158203 8.374222,0.238531 16.246512,1.793693 21.355469,4.21875 V 43.056922 C 76.51409,40.631865 68.6418,39.076703 60.267578,38.838172 c -1.203172,-0.03343 -2.405665,-0.03931 -3.599609,-0.01758 z m 49.910161,0 c 7.25676,0.132426 13.84611,1.276504 18.29101,3.175781 v 39.55664 c -5.21093,-2.22648 -13.31759,-3.396043 -21.89062,-3.158203 -8.374226,0.238531 -16.246516,1.793693 -21.355473,4.21875 v -39.55664 c 5.108957,-2.425057 12.981247,-3.980219 21.355473,-4.21875 1.20317,-0.03343 2.40566,-0.03931 3.59961,-0.01758 z"
         transform="matrix(0.60073887,0,0,0.86132106,10.965863,7.7086406)" />
    </g>
    <g
       id="g82"
       style="display:inline;opacity:1;mix-blend-mode:screen;fill:url(#radialGradient71);fill-opacity:1;fill-rule:nonzero;stroke:none;stroke-width:0.972929;stroke-dasharray:none;stroke-opacity:1;paint-order:stroke markers fill"
       transform="matrix(1.4718445,0,0,1.4718445,-28.310669,-28.310675)">
      <path
         style="display:none;fill:url(#radialGradient6);fill-opacity:1;fill-rule:nonzero;stroke:none;stroke-width:1.04096;stroke-linecap:round;stroke-linejoin:round;stroke-dasharray:none;stroke-opacity:1;paint-order:stroke markers fill"
         d="m 43.601562,76.394935 v 1.835534 c 1.975865,-1.342778 5.050085,-2.047737 8.300782,-1.904297 3.175311,0.143856 6.160458,1.080431 8.097656,2.542969 m 16.398438,-2.474206 v 1.835534 C 74.422573,76.887691 71.348353,76.182732 68.097656,76.326172 64.922345,76.470028 61.937198,77.406603 60,78.869141"
         id="path81"
         transform="matrix(1.0871287,0,0,0.80354459,-5.2277266,15.514267)" />
      <path
         id="path82"
         style="display:inline;opacity:0.841102;mix-blend-mode:screen;fill:url(#radialGradient123);fill-opacity:1;fill-rule:nonzero;stroke:none;stroke-width:1.35256;stroke-linecap:round;stroke-linejoin:round;stroke-dasharray:none;stroke-opacity:1;paint-order:stroke markers fill;filter:url(#filter75)"
         d="m 56.667969,38.820594 c -7.256763,0.132426 -13.846114,1.276504 -18.291016,3.175781 v 39.55664 c 5.210931,-2.22648 13.31759,-3.396043 21.890625,-3.158203 8.374222,0.238531 16.246512,1.793693 21.355469,4.21875 V 43.056922 C 76.51409,40.631865 68.6418,39.076703 60.267578,38.838172 c -1.203172,-0.03343 -2.405665,-0.03931 -3.599609,-0.01758 z m 49.910161,0 c 7.25676,0.132426 13.84611,1.276504 18.29101,3.175781 v 39.55664 c -5.21093,-2.22648 -13.31759,-3.396043 -21.89062,-3.158203 -8.374226,0.238531 -16.246516,1.793693 -21.355473,4.21875 v -39.55664 c 5.108957,-2.425057 12.981247,-3.980219 21.355473,-4.21875 1.20317,-0.03343 2.40566,-0.03931 3.59961,-0.01758 z"
         transform="matrix(0.60073887,0,0,0.86132106,10.965863,7.7086406)" />
    </g>
  </g>
</svg>
